<svg width="27" height="26" viewBox="0 0 27 26" fill="none" xmlns="http://www.w3.org/2000/svg">
<rect x="0.28418" y="0.156769" width="25.8404" height="25.8404" rx="12.9202" fill="#FFECEC"/>
<path fill-rule="evenodd" clip-rule="evenodd" d="M13.2043 12.5132C13.6529 12.5132 14.0831 12.335 14.4003 12.0178C14.7175 11.7006 14.8957 11.2704 14.8957 10.8218C14.8957 10.3732 14.7175 9.943 14.4003 9.62581C14.0831 9.30861 13.6529 9.13042 13.2043 9.13042C12.7557 9.13042 12.3255 9.30861 12.0083 9.62581C11.6911 9.943 11.5129 10.3732 11.5129 10.8218C11.5129 11.2704 11.6911 11.7006 12.0083 12.0178C12.3255 12.335 12.7557 12.5132 13.2043 12.5132ZM10.8075 17.5873C9.95162 17.5873 9.23061 16.8678 9.55816 16.077V16.077C9.7565 15.5982 10.0472 15.1631 10.4137 14.7967C10.7801 14.4302 11.2152 14.1395 11.694 13.9412C12.1728 13.7428 12.686 13.6407 13.2043 13.6407C13.7226 13.6407 14.2357 13.7428 14.7146 13.9412C15.1934 14.1395 15.6284 14.4302 15.9949 14.7967C16.3614 15.1631 16.6521 15.5982 16.8504 16.077V16.077C17.178 16.8678 16.457 17.5873 15.601 17.5873H10.8075Z" fill="#F53838"/>
</svg>
