<svg width="11" height="9" viewBox="0 0 11 9" fill="none" xmlns="http://www.w3.org/2000/svg">
<path d="M9.56186 4.21388H2.59669L4.72852 1.65333C4.82821 1.5334 4.87617 1.37878 4.86185 1.22349C4.84753 1.06819 4.77211 0.924948 4.65218 0.825263C4.53225 0.725579 4.37762 0.67762 4.22233 0.691938C4.06704 0.706256 3.92379 0.781677 3.82411 0.90161L0.887699 4.4253C0.867944 4.45333 0.850277 4.48277 0.834844 4.5134C0.834844 4.54276 0.834844 4.56038 0.793734 4.58974C0.767115 4.65708 0.753177 4.72876 0.752625 4.80116C0.753177 4.87357 0.767115 4.94525 0.793734 5.01258C0.793734 5.04195 0.793734 5.05957 0.834844 5.08893C0.850277 5.11955 0.867944 5.149 0.887699 5.17702L3.82411 8.70072C3.87933 8.76701 3.94847 8.82032 4.02663 8.85687C4.10479 8.89341 4.19004 8.91228 4.27632 8.91214C4.41354 8.91241 4.54652 8.86462 4.65218 8.77706C4.71165 8.72776 4.7608 8.66721 4.79683 8.59888C4.83286 8.53055 4.85506 8.45579 4.86215 8.37887C4.86924 8.30195 4.86109 8.22439 4.83816 8.15062C4.81523 8.07686 4.77798 8.00834 4.72852 7.949L2.59669 5.38845H9.56186C9.71761 5.38845 9.86699 5.32657 9.97713 5.21643C10.0873 5.1063 10.1491 4.95692 10.1491 4.80116C10.1491 4.64541 10.0873 4.49603 9.97713 4.38589C9.86699 4.27576 9.71761 4.21388 9.56186 4.21388Z" fill="#F53838"/>
</svg>
