<svg width="27" height="26" viewBox="0 0 27 26" fill="none" xmlns="http://www.w3.org/2000/svg">
<rect x="0.341431" y="0.156769" width="25.8404" height="25.8404" rx="12.9202" fill="#FFECEC"/>
<path d="M16.5504 11.6675C16.5504 11.2356 16.4653 10.8079 16.3001 10.4089C16.1348 10.0099 15.8925 9.64736 15.5871 9.34197C15.2817 9.03658 14.9192 8.79433 14.5202 8.62905C14.1212 8.46377 13.6935 8.37871 13.2616 8.37871C12.8297 8.37871 12.4021 8.46377 12.0031 8.62905C11.604 8.79433 11.2415 9.03658 10.9361 9.34197C10.6307 9.64736 10.3885 10.0099 10.2232 10.4089C10.0579 10.8079 9.97284 11.2356 9.97284 11.6675C9.97284 12.3191 10.1655 12.9252 10.492 13.4364H10.4882C11.597 15.1724 13.2616 17.7752 13.2616 17.7752L16.035 13.4364H16.0317C16.3702 12.9085 16.5502 12.2946 16.5504 11.6675ZM13.2616 13.077C12.8878 13.077 12.5293 12.9285 12.265 12.6641C12.0006 12.3998 11.8521 12.0413 11.8521 11.6675C11.8521 11.2937 12.0006 10.9352 12.265 10.6708C12.5293 10.4065 12.8878 10.258 13.2616 10.258C13.6354 10.258 13.9939 10.4065 14.2583 10.6708C14.5226 10.9352 14.6711 11.2937 14.6711 11.6675C14.6711 12.0413 14.5226 12.3998 14.2583 12.6641C13.9939 12.9285 13.6354 13.077 13.2616 13.077Z" fill="#F53838"/>
</svg>
