<svg width="12" height="12" viewBox="0 0 12 12" fill="none" xmlns="http://www.w3.org/2000/svg">
<path d="M5.58224 8.20195C5.52057 8.20207 5.45948 8.19002 5.40247 8.16648C5.34547 8.14293 5.29368 8.10837 5.25007 8.06476L3.25707 6.07129C3.21217 6.02798 3.17634 5.97616 3.15168 5.91886C3.12701 5.86156 3.11401 5.79992 3.11342 5.73753C3.11284 5.67515 3.12468 5.61328 3.14826 5.55552C3.17185 5.49777 3.2067 5.44528 3.25078 5.40114C3.29486 5.357 3.34729 5.32207 3.40501 5.29841C3.46274 5.27475 3.52459 5.26281 3.58698 5.26331C3.64936 5.26381 3.71102 5.27673 3.76836 5.30131C3.82569 5.32589 3.87756 5.36164 3.92093 5.40648L5.58177 7.06732L8.57221 4.07782C8.6603 3.98966 8.77981 3.94011 8.90444 3.94006C9.02907 3.94002 9.14862 3.98949 9.23678 4.07758C9.32493 4.16568 9.37449 4.28519 9.37453 4.40982C9.37457 4.53445 9.32511 4.65399 9.23701 4.74215L5.9144 8.06476C5.87079 8.10837 5.819 8.14293 5.762 8.16648C5.705 8.19002 5.64391 8.20207 5.58224 8.20195Z" fill="#2FAB73"/>
</svg>
