<svg width="10" height="9" viewBox="0 0 10 9" fill="none" xmlns="http://www.w3.org/2000/svg">
<path d="M0.926425 4.21388H7.89159L5.75976 1.65333C5.66007 1.5334 5.61211 1.37878 5.62643 1.22349C5.64075 1.06819 5.71617 0.924948 5.8361 0.825263C5.95604 0.725579 6.11066 0.67762 6.26595 0.691938C6.42124 0.706256 6.56449 0.781677 6.66417 0.90161L9.60058 4.4253C9.62034 4.45333 9.638 4.48277 9.65344 4.5134C9.65344 4.54276 9.65344 4.56038 9.69455 4.58974C9.72117 4.65708 9.7351 4.72876 9.73566 4.80116C9.7351 4.87357 9.72117 4.94525 9.69455 5.01258C9.69455 5.04195 9.69455 5.05957 9.65344 5.08893C9.638 5.11955 9.62034 5.149 9.60058 5.17702L6.66417 8.70072C6.60895 8.76701 6.53981 8.82032 6.46165 8.85687C6.38349 8.89341 6.29824 8.91228 6.21196 8.91214C6.07474 8.91241 5.94176 8.86462 5.8361 8.77706C5.77664 8.72776 5.72748 8.66721 5.69145 8.59888C5.65542 8.53055 5.63322 8.45579 5.62613 8.37887C5.61904 8.30195 5.62719 8.22439 5.65012 8.15062C5.67305 8.07686 5.71031 8.00834 5.75976 7.949L7.89159 5.38845H0.926425C0.770668 5.38845 0.62129 5.32657 0.511153 5.21643C0.401016 5.1063 0.339143 4.95692 0.339143 4.80116C0.339143 4.64541 0.401016 4.49603 0.511153 4.38589C0.62129 4.27576 0.770668 4.21388 0.926425 4.21388Z" fill="white"/>
</svg>
