<svg width="27" height="26" viewBox="0 0 27 26" fill="none" xmlns="http://www.w3.org/2000/svg">
<rect x="0.265137" y="0.156769" width="25.8404" height="25.8404" rx="12.9202" fill="#FFECEC"/>
<path d="M16.944 8.84851H9.42683C9.17762 8.84851 8.93862 8.94751 8.7624 9.12373C8.58618 9.29995 8.48718 9.53895 8.48718 9.78816V11.6675C8.48718 11.9167 8.58618 12.1557 8.7624 12.3319C8.93862 12.5081 9.17762 12.6071 9.42683 12.6071H16.944C17.1933 12.6071 17.4323 12.5081 17.6085 12.3319C17.7847 12.1557 17.8837 11.9167 17.8837 11.6675V9.78816C17.8837 9.53895 17.7847 9.29995 17.6085 9.12373C17.4323 8.94751 17.1933 8.84851 16.944 8.84851ZM14.5949 10.7278C14.5949 10.9873 14.3846 11.1976 14.1251 11.1976C13.8656 11.1976 13.6553 10.9873 13.6553 10.7278C13.6553 10.4683 13.8656 10.258 14.1251 10.258C14.3846 10.258 14.5949 10.4683 14.5949 10.7278ZM16.4742 10.7278C16.4742 10.9873 16.2639 11.1976 16.0044 11.1976C15.7449 11.1976 15.5346 10.9873 15.5346 10.7278C15.5346 10.4683 15.7449 10.258 16.0044 10.258C16.2639 10.258 16.4742 10.4683 16.4742 10.7278ZM16.944 13.5468H9.42683C9.17762 13.5468 8.93862 13.6458 8.7624 13.822C8.58618 13.9982 8.48718 14.2372 8.48718 14.4864V16.3657C8.48718 16.6149 8.58618 16.8539 8.7624 17.0302C8.93862 17.2064 9.17762 17.3054 9.42683 17.3054H16.944C17.1933 17.3054 17.4323 17.2064 17.6085 17.0302C17.7847 16.8539 17.8837 16.6149 17.8837 16.3657V14.4864C17.8837 14.2372 17.7847 13.9982 17.6085 13.822C17.4323 13.6458 17.1933 13.5468 16.944 13.5468ZM14.5949 15.4261C14.5949 15.6855 14.3846 15.8959 14.1251 15.8959C13.8656 15.8959 13.6553 15.6855 13.6553 15.4261C13.6553 15.1666 13.8656 14.9562 14.1251 14.9562C14.3846 14.9562 14.5949 15.1666 14.5949 15.4261ZM16.4742 15.4261C16.4742 15.6855 16.2639 15.8959 16.0044 15.8959C15.7449 15.8959 15.5346 15.6855 15.5346 15.4261C15.5346 15.1666 15.7449 14.9562 16.0044 14.9562C16.2639 14.9562 16.4742 15.1666 16.4742 15.4261Z" fill="#F53838"/>
</svg>
