<svg width="69" height="79" viewBox="0 0 69 79" fill="none" xmlns="http://www.w3.org/2000/svg">
<path fill-rule="evenodd" clip-rule="evenodd" d="M24.9419 19.5145C25.2505 18.8446 25.6119 18.3243 25.8507 18.0499C25.8554 18.697 25.7557 19.2775 25.6013 19.7819C26.0765 20.0112 26.5705 20.3322 27.0424 20.7752C26.6787 20.7642 26.0512 20.6761 25.3499 20.4476C25.0266 21.1605 24.618 21.6527 24.3501 21.8818C24.3682 21.2819 24.4945 20.7069 24.6718 20.1883C24.1708 19.9662 23.6631 19.6685 23.2105 19.2745C23.5606 19.2335 24.1993 19.2677 24.9419 19.5145Z" fill="url(#paint0_linear_643_2868)"/>
<path fill-rule="evenodd" clip-rule="evenodd" d="M22.5031 12.8043C22.7085 12.3585 22.949 12.0121 23.108 11.8295C23.1111 12.2602 23.0447 12.6465 22.942 12.9823C23.2584 13.1349 23.5871 13.3486 23.9013 13.6435C23.6592 13.6362 23.2415 13.5775 22.7746 13.4254C22.5595 13.8999 22.2875 14.2276 22.1091 14.3801C22.1212 13.9808 22.2052 13.598 22.3233 13.2528C21.9898 13.105 21.6519 12.9068 21.3507 12.6446C21.5837 12.6173 22.0088 12.6401 22.5031 12.8043Z" fill="url(#paint1_linear_643_2868)"/>
<path fill-rule="evenodd" clip-rule="evenodd" d="M15.9024 6.13379C16.2109 5.46399 16.5723 4.94367 16.8112 4.66933C16.8159 5.31639 16.7161 5.8968 16.5617 6.40125C17.037 6.63049 17.5309 6.95151 18.0029 7.39449C17.6392 7.38349 17.0117 7.29541 16.3103 7.06694C15.9871 7.77982 15.5784 8.27203 15.3105 8.50118C15.3287 7.90124 15.4549 7.32626 15.6322 6.8076C15.1312 6.58557 14.6236 6.28784 14.171 5.89385C14.5211 5.85281 15.1597 5.88708 15.9024 6.13379Z" fill="url(#paint2_linear_643_2868)"/>
<path fill-rule="evenodd" clip-rule="evenodd" d="M14.8566 21.1521C15.3105 20.1665 15.8423 19.4009 16.1937 18.9972C16.2006 19.9494 16.0538 20.8035 15.8266 21.5457C16.5255 21.883 17.2518 22.3551 17.9458 23.0065C17.411 22.9904 16.4882 22.8608 15.4567 22.525C14.9812 23.5736 14.38 24.2977 13.9859 24.6348C14.0126 23.7523 14.1983 22.9065 14.4591 22.1435C13.7217 21.8168 12.9744 21.3786 12.3083 20.7987C12.8235 20.7383 13.7635 20.7888 14.8566 21.1521Z" fill="url(#paint3_linear_643_2868)"/>
<circle cx="17.5869" cy="14.407" r="0.397721" transform="rotate(21.3865 17.5869 14.407)" fill="#2F235A"/>
<circle cx="27.4347" cy="9.40624" r="0.397721" transform="rotate(21.3865 27.4347 9.40624)" fill="#FE9076"/>
<circle cx="8.53112" cy="11.5788" r="0.397721" transform="rotate(21.3865 8.53112 11.5788)" fill="#FFA400"/>
<circle cx="17.0716" cy="27.593" r="0.397721" transform="rotate(21.3865 17.0716 27.593)" fill="#23BB86"/>
<path d="M27.133 7.50528C26.746 6.02745 25.3494 2.6476 22.8584 0.950807" stroke="#FE9076" stroke-width="0.346178" stroke-linecap="round"/>
<path d="M7.35746 9.97434C6.39465 8.7883 3.72668 6.28713 0.757246 5.77077" stroke="#FFA400" stroke-width="0.346178" stroke-linecap="round"/>
<path d="M15.3795 28.171C14.5263 28.4821 12.3784 29.4737 10.6126 30.9505" stroke="#23BB86" stroke-width="0.346178" stroke-linecap="round"/>
<path fill-rule="evenodd" clip-rule="evenodd" d="M44.6512 19.5145C44.3427 18.8447 43.9813 18.3244 43.7424 18.0501C43.7378 18.6971 43.8375 19.2775 43.9919 19.782C43.5166 20.0112 43.0227 20.3322 42.5508 20.7752C42.9144 20.7642 43.5419 20.6761 44.2433 20.4477C44.5665 21.1606 44.9752 21.6528 45.2431 21.8819C45.2249 21.282 45.0987 20.707 44.9214 20.1883C45.4224 19.9663 45.93 19.6686 46.3826 19.2746C46.0325 19.2335 45.3939 19.2678 44.6512 19.5145Z" fill="url(#paint4_linear_643_2868)"/>
<path fill-rule="evenodd" clip-rule="evenodd" d="M47.0901 12.8041C46.8848 12.3583 46.6442 12.0119 46.4852 11.8293C46.4821 12.26 46.5485 12.6464 46.6513 12.9821C46.3349 13.1347 46.0061 13.3484 45.6919 13.6433C45.934 13.636 46.3517 13.5773 46.8186 13.4252C47.0338 13.8998 47.3058 14.2274 47.4841 14.3799C47.472 13.9806 47.388 13.5979 47.2699 13.2526C47.6034 13.1048 47.9413 12.9067 48.2425 12.6444C48.0095 12.6171 47.5844 12.6399 47.0901 12.8041Z" fill="url(#paint5_linear_643_2868)"/>
<path fill-rule="evenodd" clip-rule="evenodd" d="M53.6917 6.13367C53.3832 5.46386 53.0218 4.94355 52.7829 4.6692C52.7783 5.31627 52.878 5.89668 53.0324 6.40113C52.5571 6.63037 52.0632 6.95139 51.5913 7.39437C51.9549 7.38337 52.5824 7.29528 53.2838 7.06682C53.607 7.7797 54.0157 8.27191 54.2836 8.50106C54.2654 7.90112 54.1392 7.32614 53.9619 6.80748C54.4629 6.58545 54.9705 6.28771 55.4231 5.89372C55.073 5.85268 54.4344 5.88696 53.6917 6.13367Z" fill="url(#paint6_linear_643_2868)"/>
<path fill-rule="evenodd" clip-rule="evenodd" d="M54.7375 21.1521C54.2835 20.1665 53.7517 19.4009 53.4003 18.9972C53.3934 19.9494 53.5402 20.8034 53.7674 21.5457C53.0685 21.8829 52.3422 22.3551 51.6482 23.0065C52.183 22.9903 53.1058 22.8608 54.1373 22.5249C54.6129 23.5736 55.214 24.2977 55.6081 24.6348C55.5814 23.7523 55.3957 22.9065 55.1349 22.1435C55.8723 21.8168 56.6196 21.3786 57.2857 20.7987C56.7705 20.7383 55.8305 20.7888 54.7375 21.1521Z" fill="url(#paint7_linear_643_2868)"/>
<circle cx="0.397721" cy="0.397721" r="0.397721" transform="matrix(-0.931142 0.364658 0.364658 0.931142 52.2316 13.8917)" fill="#2F235A"/>
<circle cx="0.397721" cy="0.397721" r="0.397721" transform="matrix(-0.931142 0.364658 0.364658 0.931142 42.3839 8.89087)" fill="#FE9076"/>
<circle cx="0.397721" cy="0.397721" r="0.397721" transform="matrix(-0.931142 0.364658 0.364658 0.931142 61.2875 11.0635)" fill="#FFA400"/>
<circle cx="0.397721" cy="0.397721" r="0.397721" transform="matrix(-0.931142 0.364658 0.364658 0.931142 52.747 27.0776)" fill="#23BB86"/>
<path d="M42.4608 7.50528C42.8477 6.02745 44.2443 2.6476 46.7353 0.950807" stroke="#FE9076" stroke-width="0.346178" stroke-linecap="round"/>
<path d="M62.2358 9.97434C63.1986 8.7883 65.8666 6.28713 68.836 5.77077" stroke="#FFA400" stroke-width="0.346178" stroke-linecap="round"/>
<path d="M54.2141 28.171C55.0674 28.4821 57.2153 29.4737 58.9811 30.9505" stroke="#23BB86" stroke-width="0.346178" stroke-linecap="round"/>
<rect x="13.4369" y="49.467" width="42.2141" height="29.181" fill="url(#paint8_linear_643_2868)"/>
<mask id="mask0_643_2868" style="mask-type:alpha" maskUnits="userSpaceOnUse" x="13" y="49" width="43" height="30">
<rect x="13.4369" y="49.467" width="42.2141" height="29.181" fill="#C4C4C4"/>
</mask>
<g mask="url(#mask0_643_2868)">
<path d="M15.4338 48.724L44.1787 48.7239L37.6816 60.0051L8.93677 60.0051L15.4338 48.724Z" fill="black" fill-opacity="0.07"/>
<rect x="42.1436" y="49.467" width="42.2141" height="29.181" fill="url(#paint9_linear_643_2868)"/>
</g>
<path d="M13.3993 49.467L42.1442 49.467L36.5916 58.7331L7.84671 58.7331L13.3993 49.467Z" fill="url(#paint10_linear_643_2868)"/>
<mask id="mask1_643_2868" style="mask-type:alpha" maskUnits="userSpaceOnUse" x="42" y="49" width="14" height="30">
<rect x="42.1442" y="49.467" width="13.5065" height="29.181" fill="#C4C4C4"/>
</mask>
<g mask="url(#mask1_643_2868)">
<path d="M54.0062 49.4185L40.4786 49.4185L46.8349 60.0867L60.3626 60.0867L54.0062 49.4185Z" fill="black" fill-opacity="0.07"/>
</g>
<path d="M55.6718 49.467L42.1441 49.467L47.6968 58.7331L61.2244 58.7331L55.6718 49.467Z" fill="url(#paint11_linear_643_2868)"/>
<circle cx="28.401" cy="41.3868" r="3.98921" fill="url(#paint12_linear_643_2868)"/>
<circle cx="40.8043" cy="36.0544" r="3.85479" fill="url(#paint13_linear_643_2868)"/>
<circle cx="32.3904" cy="26.2322" r="3.10851" fill="url(#paint14_linear_643_2868)"/>
<circle cx="42.9191" cy="25.7631" r="0.775212" fill="#FFA800" fill-opacity="0.23"/>
<circle cx="37.7248" cy="43.3832" r="0.775212" fill="#FFA800" fill-opacity="0.23"/>
<circle cx="24.9954" cy="31.4243" r="0.775212" fill="#FFA800" fill-opacity="0.23"/>
<path d="M55.7502 49.6051H13.403L6.89951 9.50641H63.5595L55.7502 49.6051Z" fill="url(#paint15_linear_643_2868)"/>
<defs>
<linearGradient id="paint0_linear_643_2868" x1="25.7336" y1="18.4745" x2="24.3246" y2="22.0723" gradientUnits="userSpaceOnUse">
<stop stop-color="#FFE89E"/>
<stop offset="1" stop-color="#FFBF1A"/>
</linearGradient>
<linearGradient id="paint1_linear_643_2868" x1="23.0301" y1="12.1121" x2="22.0922" y2="14.507" gradientUnits="userSpaceOnUse">
<stop stop-color="#FFE89E"/>
<stop offset="1" stop-color="#FFBF1A"/>
</linearGradient>
<linearGradient id="paint2_linear_643_2868" x1="16.6941" y1="5.09387" x2="15.2851" y2="8.69173" gradientUnits="userSpaceOnUse">
<stop stop-color="#FFE89E"/>
<stop offset="1" stop-color="#FFBF1A"/>
</linearGradient>
<linearGradient id="paint3_linear_643_2868" x1="16.0204" y1="19.6214" x2="13.9474" y2="24.9147" gradientUnits="userSpaceOnUse">
<stop stop-color="#FFE89E"/>
<stop offset="1" stop-color="#FFBF1A"/>
</linearGradient>
<linearGradient id="paint4_linear_643_2868" x1="43.8596" y1="18.4746" x2="45.2686" y2="22.0725" gradientUnits="userSpaceOnUse">
<stop stop-color="#FFE89E"/>
<stop offset="1" stop-color="#FFBF1A"/>
</linearGradient>
<linearGradient id="paint5_linear_643_2868" x1="46.5631" y1="12.1119" x2="47.501" y2="14.5068" gradientUnits="userSpaceOnUse">
<stop stop-color="#FFE89E"/>
<stop offset="1" stop-color="#FFBF1A"/>
</linearGradient>
<linearGradient id="paint6_linear_643_2868" x1="52.9001" y1="5.09375" x2="54.3091" y2="8.69161" gradientUnits="userSpaceOnUse">
<stop stop-color="#FFE89E"/>
<stop offset="1" stop-color="#FFBF1A"/>
</linearGradient>
<linearGradient id="paint7_linear_643_2868" x1="53.5736" y1="19.6214" x2="55.6466" y2="24.9147" gradientUnits="userSpaceOnUse">
<stop stop-color="#FFE89E"/>
<stop offset="1" stop-color="#FFBF1A"/>
</linearGradient>
<linearGradient id="paint8_linear_643_2868" x1="27.5383" y1="44.0644" x2="10.7137" y2="90.4041" gradientUnits="userSpaceOnUse">
<stop stop-color="#FFD481"/>
<stop offset="1" stop-color="#FA620C"/>
</linearGradient>
<linearGradient id="paint9_linear_643_2868" x1="20.6387" y1="47.6161" x2="71.6994" y2="102.181" gradientUnits="userSpaceOnUse">
<stop stop-color="#FFD481"/>
<stop offset="0.83311" stop-color="#FA620C"/>
</linearGradient>
<linearGradient id="paint10_linear_643_2868" x1="13.9909" y1="46.1552" x2="12.6248" y2="65.8985" gradientUnits="userSpaceOnUse">
<stop stop-color="#FFD481"/>
<stop offset="1" stop-color="#FA620C"/>
</linearGradient>
<linearGradient id="paint11_linear_643_2868" x1="57.8063" y1="46.1552" x2="60.2361" y2="65.6908" gradientUnits="userSpaceOnUse">
<stop stop-color="#FFD481"/>
<stop offset="1" stop-color="#FA620C"/>
</linearGradient>
<linearGradient id="paint12_linear_643_2868" x1="28.7031" y1="36.081" x2="27.9443" y2="46.8488" gradientUnits="userSpaceOnUse">
<stop stop-color="#FF9F81"/>
<stop offset="1" stop-color="#F53838"/>
</linearGradient>
<linearGradient id="paint13_linear_643_2868" x1="41.0962" y1="30.9274" x2="40.363" y2="41.3324" gradientUnits="userSpaceOnUse">
<stop stop-color="#FF9F81"/>
<stop offset="1" stop-color="#F53838"/>
</linearGradient>
<linearGradient id="paint14_linear_643_2868" x1="32.6258" y1="22.0977" x2="32.0345" y2="30.4884" gradientUnits="userSpaceOnUse">
<stop stop-color="#FF9F81"/>
<stop offset="1" stop-color="#F53838"/>
</linearGradient>
<linearGradient id="paint15_linear_643_2868" x1="34.7639" y1="9.50641" x2="34.7639" y2="94.697" gradientUnits="userSpaceOnUse">
<stop stop-color="white" stop-opacity="0"/>
<stop offset="1" stop-color="#FE9277"/>
</linearGradient>
</defs>
</svg>
